<?xml version="1.0" encoding="utf-8"?>
<!-- Generator: Adobe Illustrator 21.0.2, SVG Export Plug-In . SVG Version: 6.00 Build 0)  -->
<svg version="1.1" id="Layer_1" xmlns="http://www.w3.org/2000/svg" xmlns:xlink="http://www.w3.org/1999/xlink" x="0px" y="0px"
	 viewBox="0 0 331 152.2" style="enable-background:new 0 0 331 152.2;" xml:space="preserve">
<style type="text/css">
	.st0{fill:none;}
	.st1{fill:#6BCABA;}
</style>
<title>Asset 2</title>
<g id="Layer_2">
	<g id="Layer_1-2">
		<path class="st0" d="M0,46.2v-46h46c-1.2,0.4-2.5,0.7-3.8,1C29.8,3.2,18.1,8.2,8,15.6c-4.4,3.2-5.4,7.1-3,10.6
			c2.2,3.2,7.3,4,11.3,1.7c2.3-1.3,4.4-3,6.7-4.3c28.6-16.8,65.4-7.3,82.2,21.3c10.7,18.2,11.1,40.7,1,59.2
			c-16.9,31-54.8,40.4-85.7,21.3c-2.3-1.6-4.7-3-7.3-4.3c-3.6-1.6-6.9-0.5-9.3,2.7s-1.5,6.3,1.1,9c1.5,1.6,3.2,3,4.9,4.3
			c12.9,9.8,27.7,13.3,43.6,13.3c37.5,0,69.5-27.9,74.3-64.5c5-38.4-19-73.9-56.1-83.2C68.1,1.7,64.6,1,61,0.2h270v152H0v-49
			c2.9,3,6,5.4,10.5,3.5s4.3-5.8,4.2-9.8c-0.1-4.6,0-9.2,0-14.3c6.3,0,12,0.1,17.6-0.1c2.6-0.3,5.2,1,6.6,3.3
			c4.4,6.4,12.5,9.2,19.9,6.8c9.5-2.9,14.9-13,11.9-22.5c-1.7-5.4-5.8-9.7-11.1-11.7c-7.3-2.6-15.4-0.3-20.3,5.7
			c-1.3,1.5-2.9,3.8-4.5,3.9c-6.4,0.4-12.9,0.2-20,0.2c0-5.8,0-11.1,0-16.3c0.1-4-0.1-7.8-4.5-9.6S2.6,42.9,0,46.2z M194.5,76.1
			c0.1,39.5,30.7,72.2,70.1,74.9c24.2,1.7,44.4-6.5,61-24c3.5-3.7,3.8-7.2,0.9-10.2c-3.1-3.1-8-3.3-11.3-0.4
			c-1.3,1.1-2.5,2.3-3.7,3.3c-11.6,10-24.9,16.3-40.3,16.4c-24.5,0.3-43.3-10.4-54.7-32c-11.3-21.4-9.9-43,4.2-62.8
			c14.4-20.1,34.7-27.7,59-24.7c13.7,1.7,24.5,8.7,33.9,18.6c1.7,1.8,4.8,3.5,7.1,3.4c6.4-0.3,8.6-7.1,4.2-12.8
			c-5.8-7.6-13.3-13.7-22-17.7C252.1-14.9,195.1,19.9,194.5,76.1z M155.4,136.5v-7.3c0-38,0-76,0-114c0-2.7-0.1-5.3-0.5-8
			c-0.6-3.7-2.5-6.1-6.6-6.1s-6.1,2.3-6.8,5.9c-0.4,2-0.5,4-0.4,6c0,42.3,0,84.7,0,127c-0.1,1.7,0,3.3,0.2,5c0.7,3.6,2.8,6,6.8,6
			c16.8,0,33.7,0,50.5,0c4.5,0,6.6-2.8,7-7s-2.6-7.2-7-7.5c-1.6-0.1-3.3,0-5,0L155.4,136.5z M100.4,75.4c-0.5-3.6-0.7-7.3-1.5-10.8
			c-6.9-30.7-44-46-70-29.1c-4.8,3.1-6.4,7.3-4.2,10.8c2.1,3.2,6.6,3.8,11.2,1.3c0.4-0.2,0.9-0.5,1.3-0.7
			c14.5-7.9,31.2-4.8,41.5,7.6c10,12,10,29.4,0.2,41.5c-10.1,12.4-27,15.8-41.5,8.1c-1.8-1.1-3.8-2-5.9-2.7
			c-3.2-0.8-6.5-0.1-7.4,3.2c-0.6,2.3-0.2,5.9,1.3,7.5c3,2.9,6.5,5.2,10.3,6.7C66.4,131.3,100,108.5,100.4,75.4z M273.7,122.1
			c8.2-0.2,17.7-2.3,25.5-9.1c2.8-2.4,4-5.3,1.8-8.9s-5.4-3.6-8.8-2.4c-2,0.9-3.9,1.8-5.8,2.9c-16.2,8.1-35.9,1.4-44-14.8
			c-4.5-9.2-4.6-19.9,0-29.1c6.4-12.9,20.1-20.2,34.3-17.7c4.8,0.8,9.3,3.3,13.9,5.2c3.8,1.5,7.4,1.4,9.8-2c2.6-3.7,0.8-7.1-2.4-9.5
			c-2.1-1.6-4.4-2.9-6.9-4c-17-7.8-37.8-4.3-51.5,8.7c-13.8,13.1-18.3,33.3-11.4,51C235.4,110.3,252.6,122,273.7,122.1z
			 M181.5,107.3v-5.7c0-29.3,0-58.6,0-87.9c0-2.3-0.1-4.7-0.4-7c-0.5-3.7-2.7-5.5-6.5-5.6c-5.3-0.1-7.6,2.5-7.6,9.3
			c0,34.3,0,68.6,0,102.9c-0.1,1.2,0,2.3,0.2,3.5c0.9,3.3,2.5,5.6,6.6,5.4c4.3-0.3,8.7,0,13-0.1c5,0,7.3-2.3,7.3-7.2
			s-2.4-7.2-7.3-7.3C185.2,107.5,183.6,107.4,181.5,107.3z M295.5,64.5c-7.6,0-15.3,0-23,0c-6.1,0-10.3,4.5-10.4,10.9
			c-0.1,6.6,4.1,11.3,10.4,11.3c15.1,0.1,30.3,0.1,45.4,0c6,0,10.4-4.7,10.6-10.9c0.3-5.9-4.3-11-10.2-11.3c-0.1,0-0.3,0-0.4,0
			C310.4,64.5,302.9,64.5,295.5,64.5L295.5,64.5z"/>
		<path class="st1" d="M62.2,0.7c3.2,0.4,6.4,1,9.5,1.9c27.1,7.8,61.8,39.7,56.1,83.2c-4.8,36.7-36.8,64.5-74.3,64.5
			c-15.9,0-30.7-3.5-43.6-13.3c-1.7-1.3-3.3-2.7-4.8-4.3c-2.6-2.7-3.6-5.7-1.1-9s5.6-4.3,9.3-2.7c2.5,1.3,4.9,2.7,7.3,4.3
			c30.9,19.1,68.8,9.7,85.7-21.3c15.9-29.1,5.1-65.6-24-81.5c-18.5-10.1-41-9.7-59.2,1c-2.3,1.3-4.4,3-6.7,4.3
			c-4,2.3-9,1.5-11.3-1.7c-2.4-3.5-1.4-7.4,3-10.6c7.7-5.6,15.9-9.2,24.2-12.1c3.2-1.2,6.6-2.1,10-2.6c1.6-0.3,2.9-0.4,3.3-0.5
			C47.6,0.1,49.8,0,52,0C55.4,0,58.8,0.2,62.2,0.7z"/>
		<path d="M0,46.2c2.6-3.3,5.6-5.8,10.2-4s4.6,5.6,4.5,9.6c-0.1,5.3,0,10.5,0,16.3c7.1,0,13.6,0.3,20-0.2c1.6-0.1,3.3-2.3,4.5-3.9
			c6.2-7.8,17.5-9.1,25.3-2.9c4.5,3.5,7,9,6.8,14.6c-0.1,7.7-5.3,14.5-12.7,16.8c-7.4,2.4-15.5-0.4-19.9-6.8
			c-1.3-2.3-3.9-3.6-6.6-3.3c-5.6,0.2-11.3,0.1-17.6,0.1c0,5.1-0.1,9.7,0,14.3c0.1,4,0.1,7.9-4.2,9.8s-7.5-0.5-10.4-3.5V46.2z"/>
		<path class="st1" d="M0,46.2c2.6-3.3,5.6-5.8,10.2-4s4.6,5.6,4.5,9.6c-0.1,5.3,0,10.5,0,16.3c7.1,0,13.6,0.3,20-0.2
			c1.6-0.1,3.3-2.3,4.5-3.9c6.2-7.8,17.5-9.1,25.3-2.9c4.5,3.5,7,9,6.8,14.6c-0.1,7.7-5.3,14.5-12.7,16.8
			c-7.4,2.4-15.5-0.4-19.9-6.8c-1.3-2.3-3.9-3.6-6.6-3.3c-5.6,0.2-11.3,0.1-17.6,0.1c0,5.1-0.1,9.7,0,14.3c0.1,4,0.1,7.9-4.2,9.8
			s-7.5-0.5-10.4-3.5V46.2z"/>
		<path class="st1" d="M194.5,76.1c0.6-56.2,57.6-91,108.5-67.8c8.7,4,16.2,10.1,22,17.6c4.4,5.6,2.2,12.5-4.2,12.8
			c-2.4,0.1-5.4-1.6-7.1-3.4c-9.3-9.9-20.2-16.9-33.9-18.6c-24.3-3-44.7,4.6-59,24.7c-14.1,19.8-15.5,41.4-4.2,62.8
			c11.4,21.6,30.2,32.3,54.7,32c15.4-0.2,28.8-6.4,40.3-16.4c1.3-1.1,2.4-2.3,3.7-3.3c3.3-2.8,8.2-2.7,11.3,0.4
			c2.8,3,2.5,6.5-0.9,10.2c-16.6,17.5-36.8,25.7-61,24C225.3,148.2,194.7,115.5,194.5,76.1z"/>
		<path class="st1" d="M155.4,136.5h38.1c1.7,0,3.3-0.1,5,0c4.3,0.3,7.3,3.5,7,7.5s-2.5,6.9-7,7c-16.8,0-33.6,0-50.5,0
			c-4,0-6.1-2.4-6.8-6c-0.2-1.7-0.3-3.3-0.2-5c0-42.3,0-84.7,0-127c-0.1-2,0.1-4,0.4-6c0.8-3.6,2.7-6,6.8-5.9s6,2.5,6.6,6.1
			c0.4,2.7,0.5,5.3,0.5,8c0,38,0,76,0,114L155.4,136.5z"/>
		<path class="st1" d="M100.4,75.4c-0.4,33.1-34,55.8-64.6,43.4c-3.8-1.5-7.3-3.8-10.3-6.7c-1.5-1.5-1.9-5.2-1.3-7.5
			c0.9-3.3,4.2-4.1,7.4-3.2c2,0.7,4,1.6,5.9,2.7c14.4,7.6,31.4,4.3,41.5-8.1c9.8-12.1,9.7-29.4-0.2-41.5
			C68.4,42.1,51.6,39,37.2,46.9c-0.4,0.2-0.9,0.5-1.3,0.7c-4.5,2.5-9.1,1.9-11.2-1.3c-2.2-3.5-0.6-7.7,4.2-10.8
			c26-16.9,63.1-1.6,70,29.1C99.6,68.1,99.9,71.8,100.4,75.4z"/>
		<path class="st1" d="M273.7,122.1c-21.1-0.1-38.3-11.8-45.4-29.6c-7-17.7-2.5-37.9,11.4-51c13.7-13,34.5-16.6,51.5-8.7
			c2.4,1.1,4.7,2.4,6.9,4c3.2,2.5,5,5.8,2.4,9.5c-2.4,3.5-6,3.6-9.8,2c-4.6-1.8-9.1-4.3-13.9-5.2c-14.2-2.5-27.9,4.8-34.3,17.7
			c-8,16.2-1.3,35.9,14.9,43.9c9.2,4.5,19.9,4.5,29.1,0c1.9-1.1,3.8-2.1,5.8-2.9c3.4-1.2,6.6-1.2,8.8,2.4s0.9,6.5-1.8,8.9
			C291.4,119.8,281.9,121.8,273.7,122.1z"/>
		<path class="st1" d="M181.5,107.3c2.1,0.1,3.7,0.2,5.3,0.2c4.9,0.1,7.3,2.5,7.3,7.3s-2.3,7.2-7.3,7.2c-4.3,0-8.7-0.2-13,0.1
			c-4.1,0.3-5.7-2-6.6-5.4c-0.2-1.1-0.3-2.3-0.2-3.5c0-34.3,0-68.6,0-102.9c0-6.8,2.2-9.4,7.6-9.3c3.8,0.1,6,1.9,6.5,5.6
			c0.3,2.3,0.4,4.7,0.4,7c0,29.3,0,58.6,0,87.9L181.5,107.3z"/>
		<path class="st1" d="M295.5,64.5c7.5,0,15,0,22.5,0c5.9,0.1,10.7,4.9,10.7,10.9c0,0.1,0,0.3,0,0.4C328.4,82,324,86.7,318,86.7
			c-15.1,0.1-30.3,0.1-45.4,0c-6.3,0-10.6-4.7-10.5-11.3c0.1-6.4,4.3-10.8,10.4-10.9C280.1,64.5,287.8,64.5,295.5,64.5z"/>
	</g>
</g>
</svg>
